<mxfile host="app.diagrams.net" modified="2023-10-19T08:27:22.425Z" agent="Mozilla/5.0 (Windows NT 10.0; Win64; x64) AppleWebKit/537.36 (KHTML, like Gecko) Chrome/118.0.0.0 Safari/537.36" etag="K5m9OEjMAKU5ugD5ooUM" version="22.0.5" type="device">
  <diagram name="Página-1" id="O33c3nP241zeNHyB4yuE">
    <mxGraphModel dx="1674" dy="782" grid="1" gridSize="10" guides="1" tooltips="1" connect="1" arrows="1" fold="1" page="1" pageScale="1" pageWidth="827" pageHeight="1169" math="0" shadow="0">
      <root>
        <mxCell id="0" />
        <mxCell id="1" parent="0" />
        <mxCell id="Je69y2MYzsW5C6_N15Op-48" style="edgeStyle=orthogonalEdgeStyle;rounded=0;orthogonalLoop=1;jettySize=auto;html=1;" parent="1" source="Je69y2MYzsW5C6_N15Op-45" target="Je69y2MYzsW5C6_N15Op-46" edge="1">
          <mxGeometry relative="1" as="geometry" />
        </mxCell>
        <mxCell id="Je69y2MYzsW5C6_N15Op-45" value="Empleado" style="rounded=0;whiteSpace=wrap;html=1;" parent="1" vertex="1">
          <mxGeometry x="470" y="150" width="120" height="60" as="geometry" />
        </mxCell>
        <mxCell id="Je69y2MYzsW5C6_N15Op-54" style="edgeStyle=orthogonalEdgeStyle;rounded=0;orthogonalLoop=1;jettySize=auto;html=1;exitX=0.5;exitY=1;exitDx=0;exitDy=0;exitPerimeter=0;entryX=0.5;entryY=0;entryDx=0;entryDy=0;" parent="1" source="Je69y2MYzsW5C6_N15Op-46" target="Je69y2MYzsW5C6_N15Op-51" edge="1">
          <mxGeometry relative="1" as="geometry" />
        </mxCell>
        <mxCell id="Je69y2MYzsW5C6_N15Op-57" style="edgeStyle=orthogonalEdgeStyle;rounded=0;orthogonalLoop=1;jettySize=auto;html=1;exitX=0.5;exitY=1;exitDx=0;exitDy=0;exitPerimeter=0;entryX=0.5;entryY=0;entryDx=0;entryDy=0;" parent="1" source="Je69y2MYzsW5C6_N15Op-46" target="Je69y2MYzsW5C6_N15Op-49" edge="1">
          <mxGeometry relative="1" as="geometry" />
        </mxCell>
        <mxCell id="Je69y2MYzsW5C6_N15Op-59" style="edgeStyle=orthogonalEdgeStyle;rounded=0;orthogonalLoop=1;jettySize=auto;html=1;entryX=0.5;entryY=0;entryDx=0;entryDy=0;exitX=0.5;exitY=1;exitDx=0;exitDy=0;exitPerimeter=0;" parent="1" source="Je69y2MYzsW5C6_N15Op-46" target="Je69y2MYzsW5C6_N15Op-53" edge="1">
          <mxGeometry relative="1" as="geometry" />
        </mxCell>
        <mxCell id="Je69y2MYzsW5C6_N15Op-60" style="edgeStyle=orthogonalEdgeStyle;rounded=0;orthogonalLoop=1;jettySize=auto;html=1;entryX=0.5;entryY=0;entryDx=0;entryDy=0;exitX=0.5;exitY=1;exitDx=0;exitDy=0;exitPerimeter=0;" parent="1" source="Je69y2MYzsW5C6_N15Op-46" target="Je69y2MYzsW5C6_N15Op-50" edge="1">
          <mxGeometry relative="1" as="geometry" />
        </mxCell>
        <mxCell id="Je69y2MYzsW5C6_N15Op-61" style="edgeStyle=orthogonalEdgeStyle;rounded=0;orthogonalLoop=1;jettySize=auto;html=1;entryX=0.5;entryY=0;entryDx=0;entryDy=0;exitX=0.5;exitY=1;exitDx=0;exitDy=0;exitPerimeter=0;" parent="1" source="Je69y2MYzsW5C6_N15Op-46" target="Je69y2MYzsW5C6_N15Op-52" edge="1">
          <mxGeometry relative="1" as="geometry" />
        </mxCell>
        <mxCell id="MLzgfeFD3rHEjaN2jc4Z-1" style="edgeStyle=orthogonalEdgeStyle;rounded=0;orthogonalLoop=1;jettySize=auto;html=1;exitX=0.5;exitY=1;exitDx=0;exitDy=0;exitPerimeter=0;entryX=0.5;entryY=0;entryDx=0;entryDy=0;" edge="1" parent="1" source="Je69y2MYzsW5C6_N15Op-46" target="Je69y2MYzsW5C6_N15Op-120">
          <mxGeometry relative="1" as="geometry">
            <mxPoint x="570" y="390" as="targetPoint" />
          </mxGeometry>
        </mxCell>
        <mxCell id="Je69y2MYzsW5C6_N15Op-46" value="" style="strokeWidth=2;html=1;shape=mxgraph.flowchart.merge_or_storage;whiteSpace=wrap;" parent="1" vertex="1">
          <mxGeometry x="509.5" y="270" width="41" height="30" as="geometry" />
        </mxCell>
        <mxCell id="Je69y2MYzsW5C6_N15Op-49" value="Pilotos" style="rounded=0;whiteSpace=wrap;html=1;" parent="1" vertex="1">
          <mxGeometry x="400" y="360" width="120" height="60" as="geometry" />
        </mxCell>
        <mxCell id="Je69y2MYzsW5C6_N15Op-50" value="Mecánicos" style="rounded=0;whiteSpace=wrap;html=1;" parent="1" vertex="1">
          <mxGeometry x="250" y="360" width="120" height="60" as="geometry" />
        </mxCell>
        <mxCell id="Je69y2MYzsW5C6_N15Op-51" value="Aux. Vuelo" style="rounded=0;whiteSpace=wrap;html=1;" parent="1" vertex="1">
          <mxGeometry x="90" y="360" width="120" height="60" as="geometry" />
        </mxCell>
        <mxCell id="Je69y2MYzsW5C6_N15Op-52" value="Pers. Limpieza" style="rounded=0;whiteSpace=wrap;html=1;" parent="1" vertex="1">
          <mxGeometry x="730" y="360" width="120" height="60" as="geometry" />
        </mxCell>
        <mxCell id="Je69y2MYzsW5C6_N15Op-53" value="Pers. Gestión" style="rounded=0;whiteSpace=wrap;html=1;" parent="1" vertex="1">
          <mxGeometry x="570" y="360" width="120" height="60" as="geometry" />
        </mxCell>
        <mxCell id="Je69y2MYzsW5C6_N15Op-106" style="edgeStyle=orthogonalEdgeStyle;rounded=0;orthogonalLoop=1;jettySize=auto;html=1;exitX=0.5;exitY=1;exitDx=0;exitDy=0;entryX=0.5;entryY=0;entryDx=0;entryDy=0;" parent="1" source="Je69y2MYzsW5C6_N15Op-62" target="Je69y2MYzsW5C6_N15Op-45" edge="1">
          <mxGeometry relative="1" as="geometry" />
        </mxCell>
        <mxCell id="Je69y2MYzsW5C6_N15Op-62" value="NºEmpleado" style="ellipse;whiteSpace=wrap;html=1;align=center;fontStyle=4;" parent="1" vertex="1">
          <mxGeometry x="480" y="50" width="100" height="40" as="geometry" />
        </mxCell>
        <mxCell id="Je69y2MYzsW5C6_N15Op-109" style="edgeStyle=orthogonalEdgeStyle;rounded=0;orthogonalLoop=1;jettySize=auto;html=1;exitX=0.5;exitY=1;exitDx=0;exitDy=0;entryX=0;entryY=0.5;entryDx=0;entryDy=0;" parent="1" source="Je69y2MYzsW5C6_N15Op-64" target="Je69y2MYzsW5C6_N15Op-45" edge="1">
          <mxGeometry relative="1" as="geometry" />
        </mxCell>
        <mxCell id="Je69y2MYzsW5C6_N15Op-64" value="Salario" style="ellipse;whiteSpace=wrap;html=1;align=center;" parent="1" vertex="1">
          <mxGeometry x="360" y="50" width="100" height="40" as="geometry" />
        </mxCell>
        <mxCell id="Je69y2MYzsW5C6_N15Op-110" style="edgeStyle=orthogonalEdgeStyle;rounded=0;orthogonalLoop=1;jettySize=auto;html=1;entryX=0;entryY=0.5;entryDx=0;entryDy=0;" parent="1" source="Je69y2MYzsW5C6_N15Op-65" target="Je69y2MYzsW5C6_N15Op-45" edge="1">
          <mxGeometry relative="1" as="geometry">
            <Array as="points">
              <mxPoint x="290" y="180" />
            </Array>
          </mxGeometry>
        </mxCell>
        <mxCell id="Je69y2MYzsW5C6_N15Op-65" value="Dirección" style="ellipse;whiteSpace=wrap;html=1;align=center;" parent="1" vertex="1">
          <mxGeometry x="240" y="50" width="100" height="40" as="geometry" />
        </mxCell>
        <mxCell id="Je69y2MYzsW5C6_N15Op-108" style="edgeStyle=orthogonalEdgeStyle;rounded=0;orthogonalLoop=1;jettySize=auto;html=1;entryX=1;entryY=0.5;entryDx=0;entryDy=0;" parent="1" source="Je69y2MYzsW5C6_N15Op-66" target="Je69y2MYzsW5C6_N15Op-45" edge="1">
          <mxGeometry relative="1" as="geometry">
            <Array as="points">
              <mxPoint x="770" y="180" />
            </Array>
          </mxGeometry>
        </mxCell>
        <mxCell id="Je69y2MYzsW5C6_N15Op-66" value="Cargo" style="ellipse;whiteSpace=wrap;html=1;align=center;" parent="1" vertex="1">
          <mxGeometry x="720" y="50" width="100" height="40" as="geometry" />
        </mxCell>
        <mxCell id="Je69y2MYzsW5C6_N15Op-107" style="edgeStyle=orthogonalEdgeStyle;rounded=0;orthogonalLoop=1;jettySize=auto;html=1;entryX=1;entryY=0.5;entryDx=0;entryDy=0;" parent="1" source="Je69y2MYzsW5C6_N15Op-68" target="Je69y2MYzsW5C6_N15Op-45" edge="1">
          <mxGeometry relative="1" as="geometry">
            <Array as="points">
              <mxPoint x="670" y="180" />
            </Array>
          </mxGeometry>
        </mxCell>
        <mxCell id="Je69y2MYzsW5C6_N15Op-68" value="Nombre" style="ellipse;whiteSpace=wrap;html=1;align=center;" parent="1" vertex="1">
          <mxGeometry x="600" y="50" width="100" height="40" as="geometry" />
        </mxCell>
        <mxCell id="Je69y2MYzsW5C6_N15Op-128" style="edgeStyle=orthogonalEdgeStyle;rounded=0;orthogonalLoop=1;jettySize=auto;html=1;" parent="1" source="Je69y2MYzsW5C6_N15Op-75" target="Je69y2MYzsW5C6_N15Op-120" edge="1">
          <mxGeometry relative="1" as="geometry" />
        </mxCell>
        <mxCell id="Je69y2MYzsW5C6_N15Op-75" value="Vuelos" style="rounded=0;whiteSpace=wrap;html=1;" parent="1" vertex="1">
          <mxGeometry x="490" y="620" width="120" height="60" as="geometry" />
        </mxCell>
        <mxCell id="Je69y2MYzsW5C6_N15Op-91" style="edgeStyle=orthogonalEdgeStyle;rounded=0;orthogonalLoop=1;jettySize=auto;html=1;" parent="1" source="Je69y2MYzsW5C6_N15Op-76" target="Je69y2MYzsW5C6_N15Op-75" edge="1">
          <mxGeometry relative="1" as="geometry" />
        </mxCell>
        <mxCell id="Je69y2MYzsW5C6_N15Op-76" value="NºVuelo" style="ellipse;whiteSpace=wrap;html=1;align=center;fontStyle=4;" parent="1" vertex="1">
          <mxGeometry x="550" y="965" width="100" height="40" as="geometry" />
        </mxCell>
        <mxCell id="Je69y2MYzsW5C6_N15Op-90" style="edgeStyle=orthogonalEdgeStyle;rounded=0;orthogonalLoop=1;jettySize=auto;html=1;" parent="1" source="Je69y2MYzsW5C6_N15Op-77" target="Je69y2MYzsW5C6_N15Op-75" edge="1">
          <mxGeometry relative="1" as="geometry" />
        </mxCell>
        <mxCell id="Je69y2MYzsW5C6_N15Op-77" value="Avión" style="ellipse;whiteSpace=wrap;html=1;align=center;" parent="1" vertex="1">
          <mxGeometry x="440" y="965" width="100" height="40" as="geometry" />
        </mxCell>
        <mxCell id="Je69y2MYzsW5C6_N15Op-88" style="edgeStyle=orthogonalEdgeStyle;rounded=0;orthogonalLoop=1;jettySize=auto;html=1;entryX=0.5;entryY=1;entryDx=0;entryDy=0;" parent="1" source="Je69y2MYzsW5C6_N15Op-81" target="Je69y2MYzsW5C6_N15Op-75" edge="1">
          <mxGeometry relative="1" as="geometry" />
        </mxCell>
        <mxCell id="Je69y2MYzsW5C6_N15Op-81" value="Origen" style="ellipse;whiteSpace=wrap;html=1;align=center;" parent="1" vertex="1">
          <mxGeometry x="250" y="875" width="100" height="40" as="geometry" />
        </mxCell>
        <mxCell id="Je69y2MYzsW5C6_N15Op-87" style="edgeStyle=orthogonalEdgeStyle;rounded=0;orthogonalLoop=1;jettySize=auto;html=1;entryX=0.5;entryY=1;entryDx=0;entryDy=0;" parent="1" source="Je69y2MYzsW5C6_N15Op-82" target="Je69y2MYzsW5C6_N15Op-75" edge="1">
          <mxGeometry relative="1" as="geometry" />
        </mxCell>
        <mxCell id="Je69y2MYzsW5C6_N15Op-82" value="Fecha" style="ellipse;whiteSpace=wrap;html=1;align=center;" parent="1" vertex="1">
          <mxGeometry x="170" y="815" width="100" height="40" as="geometry" />
        </mxCell>
        <mxCell id="Je69y2MYzsW5C6_N15Op-92" style="edgeStyle=orthogonalEdgeStyle;rounded=0;orthogonalLoop=1;jettySize=auto;html=1;" parent="1" source="Je69y2MYzsW5C6_N15Op-83" target="Je69y2MYzsW5C6_N15Op-75" edge="1">
          <mxGeometry relative="1" as="geometry" />
        </mxCell>
        <mxCell id="Je69y2MYzsW5C6_N15Op-83" value="HoraLlegada" style="ellipse;whiteSpace=wrap;html=1;align=center;" parent="1" vertex="1">
          <mxGeometry x="640" y="915" width="100" height="40" as="geometry" />
        </mxCell>
        <mxCell id="Je69y2MYzsW5C6_N15Op-94" style="edgeStyle=orthogonalEdgeStyle;rounded=0;orthogonalLoop=1;jettySize=auto;html=1;entryX=0.5;entryY=1;entryDx=0;entryDy=0;" parent="1" source="Je69y2MYzsW5C6_N15Op-84" target="Je69y2MYzsW5C6_N15Op-75" edge="1">
          <mxGeometry relative="1" as="geometry" />
        </mxCell>
        <mxCell id="Je69y2MYzsW5C6_N15Op-84" value="HoraSalida" style="ellipse;whiteSpace=wrap;html=1;align=center;" parent="1" vertex="1">
          <mxGeometry x="740" y="795" width="100" height="40" as="geometry" />
        </mxCell>
        <mxCell id="Je69y2MYzsW5C6_N15Op-93" style="edgeStyle=orthogonalEdgeStyle;rounded=0;orthogonalLoop=1;jettySize=auto;html=1;" parent="1" source="Je69y2MYzsW5C6_N15Op-85" target="Je69y2MYzsW5C6_N15Op-75" edge="1">
          <mxGeometry relative="1" as="geometry" />
        </mxCell>
        <mxCell id="Je69y2MYzsW5C6_N15Op-85" value="Destino" style="ellipse;whiteSpace=wrap;html=1;align=center;" parent="1" vertex="1">
          <mxGeometry x="700" y="855" width="100" height="40" as="geometry" />
        </mxCell>
        <mxCell id="Je69y2MYzsW5C6_N15Op-95" style="edgeStyle=orthogonalEdgeStyle;rounded=0;orthogonalLoop=1;jettySize=auto;html=1;entryX=0.5;entryY=1;entryDx=0;entryDy=0;" parent="1" source="Je69y2MYzsW5C6_N15Op-86" target="Je69y2MYzsW5C6_N15Op-75" edge="1">
          <mxGeometry relative="1" as="geometry" />
        </mxCell>
        <mxCell id="Je69y2MYzsW5C6_N15Op-86" value="EmpleadosVuelo" style="ellipse;whiteSpace=wrap;html=1;align=center;" parent="1" vertex="1">
          <mxGeometry x="333" y="925" width="100" height="40" as="geometry" />
        </mxCell>
        <mxCell id="Je69y2MYzsW5C6_N15Op-96" value="Pasajeros" style="rounded=1;arcSize=10;whiteSpace=wrap;html=1;align=center;" parent="1" vertex="1">
          <mxGeometry x="1259" y="730" width="100" height="40" as="geometry" />
        </mxCell>
        <mxCell id="Je69y2MYzsW5C6_N15Op-103" style="edgeStyle=orthogonalEdgeStyle;rounded=0;orthogonalLoop=1;jettySize=auto;html=1;" parent="1" source="Je69y2MYzsW5C6_N15Op-97" target="Je69y2MYzsW5C6_N15Op-96" edge="1">
          <mxGeometry relative="1" as="geometry">
            <Array as="points">
              <mxPoint x="1460" y="690" />
              <mxPoint x="1309" y="690" />
            </Array>
          </mxGeometry>
        </mxCell>
        <mxCell id="Je69y2MYzsW5C6_N15Op-97" value="Tléfono" style="ellipse;whiteSpace=wrap;html=1;align=center;" parent="1" vertex="1">
          <mxGeometry x="1410" y="610" width="100" height="40" as="geometry" />
        </mxCell>
        <mxCell id="Je69y2MYzsW5C6_N15Op-102" style="edgeStyle=orthogonalEdgeStyle;rounded=0;orthogonalLoop=1;jettySize=auto;html=1;" parent="1" source="Je69y2MYzsW5C6_N15Op-98" edge="1">
          <mxGeometry relative="1" as="geometry">
            <mxPoint x="1309" y="730" as="targetPoint" />
          </mxGeometry>
        </mxCell>
        <mxCell id="Je69y2MYzsW5C6_N15Op-98" value="Dirección" style="ellipse;whiteSpace=wrap;html=1;align=center;" parent="1" vertex="1">
          <mxGeometry x="1259" y="610" width="100" height="40" as="geometry" />
        </mxCell>
        <mxCell id="Je69y2MYzsW5C6_N15Op-101" style="edgeStyle=orthogonalEdgeStyle;rounded=0;orthogonalLoop=1;jettySize=auto;html=1;entryX=0.5;entryY=0;entryDx=0;entryDy=0;" parent="1" source="Je69y2MYzsW5C6_N15Op-100" target="Je69y2MYzsW5C6_N15Op-96" edge="1">
          <mxGeometry relative="1" as="geometry">
            <Array as="points">
              <mxPoint x="1159" y="690" />
              <mxPoint x="1309" y="690" />
            </Array>
          </mxGeometry>
        </mxCell>
        <mxCell id="Je69y2MYzsW5C6_N15Op-100" value="Nombre" style="ellipse;whiteSpace=wrap;html=1;align=center;fontStyle=4;" parent="1" vertex="1">
          <mxGeometry x="1109" y="610" width="100" height="40" as="geometry" />
        </mxCell>
        <mxCell id="Je69y2MYzsW5C6_N15Op-111" value="Aviones" style="rounded=1;arcSize=10;whiteSpace=wrap;html=1;align=center;" parent="1" vertex="1">
          <mxGeometry x="1241" y="490" width="100" height="40" as="geometry" />
        </mxCell>
        <mxCell id="Je69y2MYzsW5C6_N15Op-115" style="edgeStyle=orthogonalEdgeStyle;rounded=0;orthogonalLoop=1;jettySize=auto;html=1;entryX=0.5;entryY=0;entryDx=0;entryDy=0;" parent="1" source="Je69y2MYzsW5C6_N15Op-112" target="Je69y2MYzsW5C6_N15Op-111" edge="1">
          <mxGeometry relative="1" as="geometry" />
        </mxCell>
        <mxCell id="Je69y2MYzsW5C6_N15Op-112" value="NºSerie" style="ellipse;whiteSpace=wrap;html=1;align=center;fontStyle=4;" parent="1" vertex="1">
          <mxGeometry x="1240" y="380" width="100" height="40" as="geometry" />
        </mxCell>
        <mxCell id="Je69y2MYzsW5C6_N15Op-119" style="edgeStyle=orthogonalEdgeStyle;rounded=0;orthogonalLoop=1;jettySize=auto;html=1;" parent="1" source="Je69y2MYzsW5C6_N15Op-113" target="Je69y2MYzsW5C6_N15Op-111" edge="1">
          <mxGeometry relative="1" as="geometry">
            <Array as="points">
              <mxPoint x="1460" y="470" />
              <mxPoint x="1291" y="470" />
            </Array>
          </mxGeometry>
        </mxCell>
        <mxCell id="Je69y2MYzsW5C6_N15Op-113" value="NºModelo" style="ellipse;whiteSpace=wrap;html=1;align=center;" parent="1" vertex="1">
          <mxGeometry x="1410" y="380" width="100" height="40" as="geometry" />
        </mxCell>
        <mxCell id="Je69y2MYzsW5C6_N15Op-118" style="edgeStyle=orthogonalEdgeStyle;rounded=0;orthogonalLoop=1;jettySize=auto;html=1;entryX=0.5;entryY=0;entryDx=0;entryDy=0;" parent="1" source="Je69y2MYzsW5C6_N15Op-114" target="Je69y2MYzsW5C6_N15Op-111" edge="1">
          <mxGeometry relative="1" as="geometry">
            <Array as="points">
              <mxPoint x="1120" y="470" />
              <mxPoint x="1291" y="470" />
            </Array>
          </mxGeometry>
        </mxCell>
        <mxCell id="Je69y2MYzsW5C6_N15Op-114" value="Constructor" style="ellipse;whiteSpace=wrap;html=1;align=center;" parent="1" vertex="1">
          <mxGeometry x="1070" y="380" width="100" height="40" as="geometry" />
        </mxCell>
        <mxCell id="Je69y2MYzsW5C6_N15Op-120" value="Realizan" style="shape=rhombus;perimeter=rhombusPerimeter;whiteSpace=wrap;html=1;align=center;" parent="1" vertex="1">
          <mxGeometry x="490" y="490" width="120" height="60" as="geometry" />
        </mxCell>
        <mxCell id="Je69y2MYzsW5C6_N15Op-129" style="edgeStyle=orthogonalEdgeStyle;rounded=0;orthogonalLoop=1;jettySize=auto;html=1;entryX=1;entryY=0.5;entryDx=0;entryDy=0;" parent="1" source="Je69y2MYzsW5C6_N15Op-125" target="Je69y2MYzsW5C6_N15Op-75" edge="1">
          <mxGeometry relative="1" as="geometry" />
        </mxCell>
        <mxCell id="Je69y2MYzsW5C6_N15Op-130" style="edgeStyle=orthogonalEdgeStyle;rounded=0;orthogonalLoop=1;jettySize=auto;html=1;entryX=0;entryY=0.5;entryDx=0;entryDy=0;" parent="1" source="Je69y2MYzsW5C6_N15Op-125" target="Je69y2MYzsW5C6_N15Op-96" edge="1">
          <mxGeometry relative="1" as="geometry" />
        </mxCell>
        <mxCell id="Je69y2MYzsW5C6_N15Op-125" value="tripulan" style="shape=rhombus;perimeter=rhombusPerimeter;whiteSpace=wrap;html=1;align=center;" parent="1" vertex="1">
          <mxGeometry x="840" y="680" width="120" height="60" as="geometry" />
        </mxCell>
        <mxCell id="Je69y2MYzsW5C6_N15Op-132" style="edgeStyle=orthogonalEdgeStyle;rounded=0;orthogonalLoop=1;jettySize=auto;html=1;entryX=0;entryY=0.5;entryDx=0;entryDy=0;" parent="1" source="Je69y2MYzsW5C6_N15Op-131" target="Je69y2MYzsW5C6_N15Op-111" edge="1">
          <mxGeometry relative="1" as="geometry" />
        </mxCell>
        <mxCell id="Je69y2MYzsW5C6_N15Op-139" style="edgeStyle=orthogonalEdgeStyle;rounded=0;orthogonalLoop=1;jettySize=auto;html=1;entryX=1;entryY=0;entryDx=0;entryDy=0;" parent="1" source="Je69y2MYzsW5C6_N15Op-131" target="Je69y2MYzsW5C6_N15Op-75" edge="1">
          <mxGeometry relative="1" as="geometry">
            <Array as="points">
              <mxPoint x="900" y="590" />
              <mxPoint x="610" y="590" />
            </Array>
          </mxGeometry>
        </mxCell>
        <mxCell id="Je69y2MYzsW5C6_N15Op-131" value="medio" style="shape=rhombus;perimeter=rhombusPerimeter;whiteSpace=wrap;html=1;align=center;" parent="1" vertex="1">
          <mxGeometry x="840" y="500" width="120" height="60" as="geometry" />
        </mxCell>
        <mxCell id="Je69y2MYzsW5C6_N15Op-137" style="edgeStyle=orthogonalEdgeStyle;rounded=0;orthogonalLoop=1;jettySize=auto;html=1;entryX=1;entryY=1;entryDx=0;entryDy=0;" parent="1" source="Je69y2MYzsW5C6_N15Op-134" target="Je69y2MYzsW5C6_N15Op-49" edge="1">
          <mxGeometry relative="1" as="geometry" />
        </mxCell>
        <mxCell id="Je69y2MYzsW5C6_N15Op-138" style="edgeStyle=orthogonalEdgeStyle;rounded=0;orthogonalLoop=1;jettySize=auto;html=1;entryX=0;entryY=0.5;entryDx=0;entryDy=0;" parent="1" source="Je69y2MYzsW5C6_N15Op-134" target="Je69y2MYzsW5C6_N15Op-111" edge="1">
          <mxGeometry relative="1" as="geometry">
            <Array as="points">
              <mxPoint x="1031" y="470" />
              <mxPoint x="1031" y="500" />
              <mxPoint x="1241" y="500" />
            </Array>
          </mxGeometry>
        </mxCell>
        <mxCell id="Je69y2MYzsW5C6_N15Op-134" value="Pilotan" style="shape=rhombus;perimeter=rhombusPerimeter;whiteSpace=wrap;html=1;align=center;" parent="1" vertex="1">
          <mxGeometry x="700" y="440" width="120" height="60" as="geometry" />
        </mxCell>
      </root>
    </mxGraphModel>
  </diagram>
</mxfile>
